<svg width="16" height="16" viewBox="0 0 16 16" fill="none" xmlns="http://www.w3.org/2000/svg">
<path d="M1.75 6.33333C1.75 5.11776 2.23288 3.95197 3.09242 3.09243C3.95197 2.23289 5.11775 1.75 6.33333 1.75C7.54891 1.75 8.7147 2.23289 9.57424 3.09243C10.4338 3.95197 10.9167 5.11776 10.9167 6.33333C10.9167 7.54891 10.4338 8.7147 9.57424 9.57424C8.7147 10.4338 7.54891 10.9167 6.33333 10.9167C5.11775 10.9167 3.95197 10.4338 3.09242 9.57424C2.23288 8.7147 1.75 7.54891 1.75 6.33333ZM6.33333 0.5C5.40056 0.500079 4.4814 0.723844 3.65297 1.15252C2.82453 1.58121 2.11098 2.2023 1.57216 2.96371C1.03334 3.72512 0.684975 4.60464 0.556278 5.5285C0.427582 6.45235 0.522309 7.3936 0.832516 8.27328C1.14272 9.15297 1.65936 9.94543 2.33909 10.5842C3.01883 11.223 3.84183 11.6894 4.73907 11.9444C5.63631 12.1995 6.58162 12.2356 7.49571 12.0498C8.4098 11.864 9.266 11.4617 9.9925 10.8767L14.4333 15.3167C14.4905 15.3781 14.5595 15.4273 14.6362 15.4615C14.7129 15.4956 14.7956 15.514 14.8796 15.5155C14.9635 15.517 15.0468 15.5015 15.1247 15.4701C15.2025 15.4387 15.2732 15.3919 15.3325 15.3325C15.3919 15.2732 15.4387 15.2025 15.4701 15.1247C15.5015 15.0468 15.517 14.9635 15.5155 14.8796C15.514 14.7956 15.4956 14.7129 15.4615 14.6362C15.4273 14.5596 15.3781 14.4906 15.3167 14.4333L10.8767 9.9925C11.567 9.13545 12.0008 8.10062 12.128 7.00751C12.2552 5.91439 12.0705 4.8076 11.5954 3.81496C11.1203 2.82231 10.3741 1.98431 9.443 1.39773C8.51188 0.811149 7.43382 0.499925 6.33333 0.5Z" fill="#21293C"/>
</svg>
