<svg width="25" height="25" viewBox="0 0 25 25" fill="none" xmlns="http://www.w3.org/2000/svg">
<path d="M12.5 11.0971C14.3256 11.0971 15.8056 9.63582 15.8056 7.83322C15.8056 6.03063 14.3256 4.56934 12.5 4.56934C10.6744 4.56934 9.19446 6.03063 9.19446 7.83322C9.19446 9.63582 10.6744 11.0971 12.5 11.0971Z" fill="white"/>
<path d="M7.48615 8.15969H7.81949V7.86108C7.82151 6.99275 8.06648 6.14231 8.5267 5.40596C8.98692 4.66961 9.64401 4.07674 10.4237 3.69442C10.1928 3.16286 9.82237 2.70374 9.35159 2.36583C8.88081 2.02791 8.32729 1.82382 7.74983 1.77522C7.17237 1.72662 6.59253 1.83533 6.07189 2.08981C5.55125 2.34429 5.10926 2.73503 4.79286 3.22053C4.47646 3.70603 4.29746 4.26817 4.27488 4.84723C4.25229 5.42629 4.38697 6.00066 4.6646 6.50932C4.94224 7.01799 5.35246 7.44197 5.8517 7.73622C6.35093 8.03047 6.92055 8.18401 7.50004 8.18053L7.48615 8.15969ZM17.1945 7.8333V8.13192H17.5278C18.0996 8.12618 18.6592 7.9664 19.1479 7.66941C19.6365 7.37242 20.036 6.94919 20.3044 6.44428C20.5728 5.93937 20.7 5.37144 20.6729 4.80029C20.6457 4.22913 20.465 3.67587 20.1499 3.19873C19.8348 2.72159 19.3969 2.33823 18.8822 2.089C18.3676 1.83976 17.7953 1.73387 17.2256 1.78247C16.6558 1.83107 16.1097 2.03237 15.6448 2.36517C15.1798 2.69797 14.8131 3.14997 14.5834 3.67358C15.3633 4.05441 16.0211 4.64578 16.4825 5.38086C16.9439 6.11593 17.1905 6.96542 17.1945 7.8333ZM15.4792 11.4236C16.8599 11.6969 18.195 12.1645 19.4445 12.8125C19.6205 12.9092 19.7799 13.0334 19.9167 13.1805H23.6112V10.8055C23.6118 10.7144 23.5876 10.6249 23.5411 10.5466C23.4946 10.4682 23.4276 10.4041 23.3473 10.3611C21.5474 9.41964 19.5452 8.931 17.5139 8.93747H17.0556C16.8149 9.91575 16.2614 10.7887 15.4792 11.4236ZM4.53476 14.5277C4.53349 14.178 4.62795 13.8346 4.80789 13.5347C4.98783 13.2348 5.2464 12.9898 5.5556 12.8264C6.8051 12.1784 8.14013 11.7108 9.52087 11.4375C8.74245 10.808 8.18929 9.9429 7.94448 8.97219H7.48615C5.45492 8.96572 3.45271 9.45436 1.65282 10.3958C1.57252 10.4388 1.5055 10.503 1.45899 10.5813C1.41248 10.6596 1.38826 10.7492 1.38893 10.8402V15.2777H4.53476V14.5277ZM14.9028 18.5347H19.0417V19.5069H14.9028V18.5347Z" fill="white"/>
<path d="M22.7847 14.764H18.0139V14.0696C18.0139 13.8854 17.9407 13.7087 17.8105 13.5785C17.6802 13.4483 17.5036 13.3751 17.3194 13.3751C17.1353 13.3751 16.9586 13.4483 16.8284 13.5785C16.6982 13.7087 16.625 13.8854 16.625 14.0696V14.764H15.2778V12.7987C14.3641 12.6069 13.4335 12.5068 12.5 12.5001C10.3082 12.491 8.14764 13.0204 6.20832 14.0418C6.12194 14.0866 6.04963 14.1544 5.99938 14.2378C5.94914 14.3211 5.92291 14.4167 5.9236 14.514V18.4098H10.8611V22.639C10.8611 22.8232 10.9343 22.9998 11.0645 23.1301C11.1947 23.2603 11.3714 23.3334 11.5555 23.3334H22.7847C22.9689 23.3334 23.1455 23.2603 23.2758 23.1301C23.406 22.9998 23.4792 22.8232 23.4792 22.639V15.4584C23.4792 15.2743 23.406 15.0976 23.2758 14.9674C23.1455 14.8372 22.9689 14.764 22.7847 14.764ZM22.0903 21.9585H12.25V16.1529H16.625V16.7848C16.625 16.969 16.6982 17.1457 16.8284 17.2759C16.9586 17.4061 17.1353 17.4793 17.3194 17.4793C17.5036 17.4793 17.6802 17.4061 17.8105 17.2759C17.9407 17.1457 18.0139 16.969 18.0139 16.7848V16.1529H22.0903V21.9585Z" fill="white"/>
</svg>
