<svg width="25" height="25" viewBox="0 0 25 25" fill="none" xmlns="http://www.w3.org/2000/svg">
<path d="M3.33337 12.7083C3.33337 12.9845 3.44312 13.2495 3.63847 13.4448C3.83382 13.6402 4.09877 13.7499 4.37504 13.7499H10.625C10.9013 13.7499 11.1663 13.6402 11.3616 13.4448C11.557 13.2495 11.6667 12.9845 11.6667 12.7083V4.37492C11.6667 4.09865 11.557 3.8337 11.3616 3.63835C11.1663 3.443 10.9013 3.33325 10.625 3.33325H4.37504C4.09877 3.33325 3.83382 3.443 3.63847 3.63835C3.44312 3.8337 3.33337 4.09865 3.33337 4.37492V12.7083ZM3.33337 21.0416C3.33337 21.3179 3.44312 21.5828 3.63847 21.7782C3.83382 21.9735 4.09877 22.0833 4.37504 22.0833H10.625C10.9013 22.0833 11.1663 21.9735 11.3616 21.7782C11.557 21.5828 11.6667 21.3179 11.6667 21.0416V16.8749C11.6667 16.5987 11.557 16.3337 11.3616 16.1383C11.1663 15.943 10.9013 15.8333 10.625 15.8333H4.37504C4.09877 15.8333 3.83382 15.943 3.63847 16.1383C3.44312 16.3337 3.33337 16.5987 3.33337 16.8749V21.0416ZM13.75 21.0416C13.75 21.3179 13.8598 21.5828 14.0551 21.7782C14.2505 21.9735 14.5154 22.0833 14.7917 22.0833H21.0417C21.318 22.0833 21.5829 21.9735 21.7783 21.7782C21.9736 21.5828 22.0834 21.3179 22.0834 21.0416V12.7083C22.0834 12.432 21.9736 12.167 21.7783 11.9717C21.5829 11.7763 21.318 11.6666 21.0417 11.6666H14.7917C14.5154 11.6666 14.2505 11.7763 14.0551 11.9717C13.8598 12.167 13.75 12.432 13.75 12.7083V21.0416ZM14.7917 3.33325C14.5154 3.33325 14.2505 3.443 14.0551 3.63835C13.8598 3.8337 13.75 4.09865 13.75 4.37492V8.54158C13.75 8.81785 13.8598 9.0828 14.0551 9.27815C14.2505 9.47351 14.5154 9.58325 14.7917 9.58325H21.0417C21.318 9.58325 21.5829 9.47351 21.7783 9.27815C21.9736 9.0828 22.0834 8.81785 22.0834 8.54158V4.37492C22.0834 4.09865 21.9736 3.8337 21.7783 3.63835C21.5829 3.443 21.318 3.33325 21.0417 3.33325H14.7917Z" fill="#21293C"/>
</svg>
